<?xml version="1.0" encoding="UTF-8" standalone="no"?>
<svg
   xmlns:dc="http://purl.org/dc/elements/1.1/"
   xmlns:cc="http://creativecommons.org/ns#"
   xmlns:rdf="http://www.w3.org/1999/02/22-rdf-syntax-ns#"
   xmlns:svg="http://www.w3.org/2000/svg"
   xmlns="http://www.w3.org/2000/svg"
   xmlns:sodipodi="http://sodipodi.sourceforge.net/DTD/sodipodi-0.dtd"
   xmlns:inkscape="http://www.inkscape.org/namespaces/inkscape"
   width="74"
   height="32"
   viewBox="0 0 74 32"
   fill="none"
   version="1.1"
   id="svg53"
   sodipodi:docname="csharp.svg"
   inkscape:version="1.0.2 (e86c870879, 2021-01-15, custom)">
  <metadata
     id="metadata57">
    <rdf:RDF>
      <cc:Work
         rdf:about="">
        <dc:format>image/svg+xml</dc:format>
        <dc:type
           rdf:resource="http://purl.org/dc/dcmitype/StillImage" />
      </cc:Work>
    </rdf:RDF>
  </metadata>
  <sodipodi:namedview
     pagecolor="#ffffff"
     bordercolor="#666666"
     borderopacity="1"
     objecttolerance="10"
     gridtolerance="10"
     guidetolerance="10"
     inkscape:pageopacity="0"
     inkscape:pageshadow="2"
     inkscape:window-width="1366"
     inkscape:window-height="705"
     id="namedview55"
     showgrid="false"
     inkscape:zoom="6.9054055"
     inkscape:cx="63.032064"
     inkscape:cy="2.7140018"
     inkscape:window-x="-8"
     inkscape:window-y="-8"
     inkscape:window-maximized="1"
     inkscape:current-layer="g26"
     inkscape:document-rotation="0" />
  <g
     clip-path="url(#clip0)"
     id="g26">
    <path
       d="M 69,0 H 31 v 32 h 38 c 2.7614,0 5,-2.2386 5,-5 V 5 C 74,2.23858 71.7614,0 69,0 Z"
       fill="#0f1418"
       id="path2" />
    <path
       d="M 31,0 H 5 C 2.23858,0 0,2.23858 0,5 v 22 c 0,2.7614 2.23858,5 5,5 h 26 z"
       fill="#035bda"
       id="path4" />
    <path
       d="M 31,6 H 12 v 19 h 19 z"
       fill="url(#paint0_linear)"
       id="path6" />
    <path
       d="M 31,24.6208 10.4785,13.0092 H 0 v 14.2227 c 0,2.7614 2.23858,5 5,5 h 26 z"
       fill="url(#paint1_linear)"
       id="path8" />
    <path
       d="M 0,24.4629 31,6.9214 V 0 H 5 C 2.23858,0 0,2.23858 0,5 Z"
       fill="url(#paint2_linear)"
       id="path10" />
    <path
       d="M 6.61043,15.8893 C 6.55886,7.31786 18.0394,3.53307 22.9903,11.4974 l -3.799,2.1983 c -2.2933,-3.79309 -7.9875,-2.4368 -8.1919,2.1935 0.0614,4.2675 5.6581,6.2498 8.1922,2.1933 l 3.7989,2.1982 C 18.6274,27.8551 6.83049,25.13 6.61043,15.8893 Z"
       fill="#ffffff"
       id="path12" />
    <path
       d="m 21.0903,13.4004 h 0.7235 l -0.4943,4.7751 h -0.7371 z"
       fill="#ffffff"
       id="path14" />
    <path
       d="m 22.6401,13.4004 h 0.7235 l -0.4943,4.7751 h -0.7371 z"
       fill="#ffffff"
       id="path16" />
    <path
       d="M 23.8975,14.5344 H 20.28 v 0.6988 h 3.6175 z"
       fill="#ffffff"
       id="path18" />
    <path
       d="m 23.6949,16.2366 h -3.6175 v 0.6987 h 3.6175 z"
       fill="#ffffff"
       id="path20" />
    <text
       xml:space="preserve"
       style="font-style:normal;font-weight:normal;font-size:40px;line-height:1.25;font-family:sans-serif;fill:#f2f2f2;fill-opacity:1;stroke:none"
       x="41.561642"
       y="22.228962"
       id="text35"><tspan
         sodipodi:role="line"
         id="tspan33"
         x="41.561642"
         y="22.228962"
         style="font-style:normal;font-variant:normal;font-weight:normal;font-stretch:normal;font-size:20px;font-family:'Myriad Pro';-inkscape-font-specification:'Myriad Pro';fill:#f2f2f2">C#</tspan></text>
  </g>
  <defs
     id="defs51">
    <linearGradient
       id="paint0_linear"
       x1="18.5061"
       y1="11.7525"
       x2="27.4376"
       y2="23.442"
       gradientUnits="userSpaceOnUse">
      <stop
         stop-color="#3B009B"
         id="stop28" />
      <stop
         offset="1"
         stop-color="#390086"
         id="stop30" />
    </linearGradient>
    <linearGradient
       id="paint1_linear"
       x1="8.65672"
       y1="19.8613"
       x2="16.625"
       y2="30.2911"
       gradientUnits="userSpaceOnUse">
      <stop
         stop-color="#340084"
         id="stop33" />
      <stop
         offset="1"
         stop-color="#290064"
         id="stop35" />
    </linearGradient>
    <linearGradient
       id="paint2_linear"
       x1="9.0029"
       y1="4.09966"
       x2="17.1582"
       y2="14.7742"
       gradientUnits="userSpaceOnUse">
      <stop
         stop-color="#A47EDE"
         id="stop38" />
      <stop
         offset="1"
         stop-color="#9866D3"
         id="stop40" />
    </linearGradient>
    <linearGradient
       id="paint3_linear"
       x1="0"
       y1="0"
       x2="0"
       y2="32"
       gradientUnits="userSpaceOnUse">
      <stop
         stop-color="#BBBBBB"
         stop-opacity="0.1"
         id="stop43" />
      <stop
         offset="1"
         stop-opacity="0.1"
         id="stop45" />
    </linearGradient>
    <clipPath
       id="clip0">
      <rect
         width="74"
         height="32"
         fill="white"
         id="rect48" />
    </clipPath>
  </defs>
</svg>
