<svg xmlns="http://www.w3.org/2000/svg" xmlns:svg="http://www.w3.org/2000/svg" id="svg53" width="74" height="32" fill="none" version="1.1" viewBox="0 0 74 32"><metadata id="metadata57"/><g id="g26" clip-path="url(#clip0)"><path id="path2" fill="#0f1418" d="M 69,0 H 31 v 32 h 38 c 2.7614,0 5,-2.2386 5,-5 V 5 C 74,2.23858 71.7614,0 69,0 Z"/><path id="path4" fill="#035bda" d="M 31,0 H 5 C 2.23858,0 0,2.23858 0,5 v 22 c 0,2.7614 2.23858,5 5,5 h 26 z"/><path id="path6" fill="url(#paint0_linear)" d="M 31,6 H 12 v 19 h 19 z"/><path id="path8" fill="url(#paint1_linear)" d="M 31,24.6208 10.4785,13.0092 H 0 v 14.2227 c 0,2.7614 2.23858,5 5,5 h 26 z"/><path id="path10" fill="url(#paint2_linear)" d="M 0,24.4629 31,6.9214 V 0 H 5 C 2.23858,0 0,2.23858 0,5 Z"/><path id="path12" fill="#fff" d="M 6.61043,15.8893 C 6.55886,7.31786 18.0394,3.53307 22.9903,11.4974 l -3.799,2.1983 c -2.2933,-3.79309 -7.9875,-2.4368 -8.1919,2.1935 0.0614,4.2675 5.6581,6.2498 8.1922,2.1933 l 3.7989,2.1982 C 18.6274,27.8551 6.83049,25.13 6.61043,15.8893 Z"/><path id="path14" fill="#fff" d="m 21.0903,13.4004 h 0.7235 l -0.4943,4.7751 h -0.7371 z"/><path id="path16" fill="#fff" d="m 22.6401,13.4004 h 0.7235 l -0.4943,4.7751 h -0.7371 z"/><path id="path18" fill="#fff" d="M 23.8975,14.5344 H 20.28 v 0.6988 h 3.6175 z"/><path id="path20" fill="#fff" d="m 23.6949,16.2366 h -3.6175 v 0.6987 h 3.6175 z"/><text style="font-style:normal;font-weight:400;font-size:40px;line-height:1.25;font-family:sans-serif;fill:#f2f2f2;fill-opacity:1;stroke:none" id="text35" x="41.562" y="22.229" xml:space="preserve"><tspan id="tspan33" x="41.562" y="22.229" style="font-style:normal;font-variant:normal;font-weight:400;font-stretch:normal;font-size:20px;font-family:'Myriad Pro';-inkscape-font-specification:'Myriad Pro';fill:#f2f2f2">C#</tspan></text></g><defs id="defs51"><linearGradient id="paint0_linear" x1="18.506" x2="27.438" y1="11.752" y2="23.442" gradientUnits="userSpaceOnUse"><stop id="stop28" stop-color="#3B009B"/><stop id="stop30" offset="1" stop-color="#390086"/></linearGradient><linearGradient id="paint1_linear" x1="8.657" x2="16.625" y1="19.861" y2="30.291" gradientUnits="userSpaceOnUse"><stop id="stop33" stop-color="#340084"/><stop id="stop35" offset="1" stop-color="#290064"/></linearGradient><linearGradient id="paint2_linear" x1="9.003" x2="17.158" y1="4.1" y2="14.774" gradientUnits="userSpaceOnUse"><stop id="stop38" stop-color="#A47EDE"/><stop id="stop40" offset="1" stop-color="#9866D3"/></linearGradient><linearGradient id="paint3_linear" x1="0" x2="0" y1="0" y2="32" gradientUnits="userSpaceOnUse"><stop id="stop43" stop-color="#BBB" stop-opacity=".1"/><stop id="stop45" offset="1" stop-opacity=".1"/></linearGradient><clipPath id="clip0"><rect id="rect48" width="74" height="32" fill="#fff"/></clipPath></defs></svg>