<?xml version="1.0" encoding="UTF-8" standalone="no"?>
<svg
   xmlns:dc="http://purl.org/dc/elements/1.1/"
   xmlns:cc="http://creativecommons.org/ns#"
   xmlns:rdf="http://www.w3.org/1999/02/22-rdf-syntax-ns#"
   xmlns:svg="http://www.w3.org/2000/svg"
   xmlns="http://www.w3.org/2000/svg"
   xmlns:sodipodi="http://sodipodi.sourceforge.net/DTD/sodipodi-0.dtd"
   xmlns:inkscape="http://www.inkscape.org/namespaces/inkscape"
   width="107"
   height="32"
   viewBox="0 0 107 32"
   fill="none"
   version="1.1"
   id="svg19"
   sodipodi:docname="docker.svg"
   inkscape:version="1.0.2 (e86c870879, 2021-01-15, custom)">
  <metadata
     id="metadata23">
    <rdf:RDF>
      <cc:Work
         rdf:about="">
        <dc:format>image/svg+xml</dc:format>
        <dc:type
           rdf:resource="http://purl.org/dc/dcmitype/StillImage" />
      </cc:Work>
    </rdf:RDF>
  </metadata>
  <sodipodi:namedview
     pagecolor="#ffffff"
     bordercolor="#666666"
     borderopacity="1"
     objecttolerance="10"
     gridtolerance="10"
     guidetolerance="10"
     inkscape:pageopacity="0"
     inkscape:pageshadow="2"
     inkscape:window-width="1366"
     inkscape:window-height="705"
     id="namedview21"
     showgrid="false"
     inkscape:zoom="4.7757009"
     inkscape:cx="75.041959"
     inkscape:cy="17.342156"
     inkscape:window-x="-8"
     inkscape:window-y="-8"
     inkscape:window-maximized="1"
     inkscape:current-layer="svg19" />
  <path
     d="M102 0H31V32H102C104.761 32 107 29.7614 107 27V5C107 2.23858 104.761 0 102 0Z"
     fill="#0F1418"
     id="path2" />
  <path
     d="M31 0H5C2.23858 0 0 2.23858 0 5V27C0 29.7614 2.23858 32 5 32H31V0Z"
     fill="#29B2E7"
     id="path4" />
  <path
     d="M17.0785 15.6607H14.6V13.4334H17.0785V15.6607ZM17.0785 8H14.6V10.2761H17.0785V8ZM20.0108 13.4296H17.5323V15.657H20.0108V13.4296ZM14.15 10.7261H11.6714V12.9797H14.15V10.7261ZM17.0785 10.7261H14.6V12.9797H17.0785V10.7261ZM27.4578 14.4758C26.9179 14.1121 25.6729 13.9808 24.7168 14.1608C24.593 13.2609 24.0906 12.4772 23.1756 11.7722L22.6507 11.4235L22.3019 11.9485C21.612 12.9909 21.4245 14.7083 22.1632 15.8407C21.837 16.017 21.1958 16.2569 20.3483 16.2419H4.04817C3.72194 18.1468 4.26566 20.6216 5.69806 22.3203C7.08921 23.9664 9.1741 24.8026 11.9001 24.8026C17.8022 24.8026 22.1707 22.084 24.2143 17.1456C25.0167 17.1606 26.7491 17.1494 27.6378 15.4507C27.6941 15.357 27.8853 14.9558 27.9565 14.8095L27.4578 14.4758ZM8.29288 13.4296H5.81805V15.657H8.29663V13.4296H8.29288ZM11.2214 13.4296H8.74285V15.657H11.2214V13.4296ZM14.15 13.4296H11.6714V15.657H14.15V13.4296ZM11.2214 10.7261H8.74285V12.9797H11.2214V10.7261Z"
     fill="white"
     id="path6" />
  <defs
     id="defs17">
    <linearGradient
       id="paint0_linear"
       x1="0"
       y1="0"
       x2="0"
       y2="32"
       gradientUnits="userSpaceOnUse"
       gradientTransform="translate(0,20)">
      <stop
         stop-color="#BBBBBB"
         stop-opacity="0.1"
         id="stop12" />
      <stop
         offset="1"
         stop-opacity="0.1"
         id="stop14" />
    </linearGradient>
  </defs>
  <text
     xml:space="preserve"
     style="font-style:normal;font-weight:normal;font-size:40px;line-height:1.25;font-family:sans-serif;letter-spacing:1px;fill:#000000;fill-opacity:1;stroke:none"
     x="38.947163"
     y="21.9863"
     id="text27"><tspan
       sodipodi:role="line"
       id="tspan25"
       x="38.947163"
       y="21.9863"
       style="font-style:normal;font-variant:normal;font-weight:normal;font-stretch:normal;font-size:20px;font-family:'Myriad Pro';-inkscape-font-specification:'Myriad Pro';letter-spacing:1px;fill:#ececec">Docker</tspan></text>
</svg>
