<svg xmlns="http://www.w3.org/2000/svg" xmlns:svg="http://www.w3.org/2000/svg" id="svg1037" width="107" height="32" version="1.1" viewBox="0 0 28.31 8.467"><defs id="defs1031"><linearGradient id="paint0_linear" x1="0" x2="0" y1="0" y2="32" gradientUnits="userSpaceOnUse"><stop id="stop1063" stop-color="#BBB" stop-opacity=".1"/><stop id="stop1065" offset="1" stop-opacity=".1"/></linearGradient><linearGradient id="paint0_linear-6" x1="13.605" x2="10.897" y1="13.737" y2="17.993" gradientUnits="userSpaceOnUse"><stop id="stop37" stop-color="#41873F"/><stop id="stop39" offset=".329" stop-color="#418B3D"/><stop id="stop41" offset=".635" stop-color="#419637"/><stop id="stop43" offset=".932" stop-color="#3FA92D"/><stop id="stop45" offset="1" stop-color="#3FAE2A"/></linearGradient><linearGradient id="paint1_linear" x1="12.224" x2="19.006" y1="16.122" y2="12.437" gradientUnits="userSpaceOnUse"><stop id="stop48" offset=".138" stop-color="#41873F"/><stop id="stop50" offset=".403" stop-color="#54A044"/><stop id="stop52" offset=".714" stop-color="#66B848"/><stop id="stop54" offset=".908" stop-color="#6CC04A"/></linearGradient><linearGradient id="paint2_linear" x1="9.741" x2="15.459" y1="15.788" y2="15.788" gradientUnits="userSpaceOnUse"><stop id="stop57" offset=".092" stop-color="#6CC04A"/><stop id="stop59" offset=".286" stop-color="#66B848"/><stop id="stop61" offset=".597" stop-color="#54A044"/><stop id="stop63" offset=".862" stop-color="#41873F"/></linearGradient><linearGradient id="paint3_linear" x1="9.741" x2="15.459" y1="18.158" y2="18.158" gradientUnits="userSpaceOnUse"><stop id="stop66" offset=".092" stop-color="#6CC04A"/><stop id="stop68" offset=".286" stop-color="#66B848"/><stop id="stop70" offset=".597" stop-color="#54A044"/><stop id="stop72" offset=".862" stop-color="#41873F"/></linearGradient><linearGradient id="paint4_linear" x1="16.292" x2="14.843" y1="13.602" y2="21.192" gradientUnits="userSpaceOnUse"><stop id="stop75" stop-color="#41873F"/><stop id="stop77" offset=".329" stop-color="#418B3D"/><stop id="stop79" offset=".635" stop-color="#419637"/><stop id="stop81" offset=".932" stop-color="#3FA92D"/><stop id="stop83" offset="1" stop-color="#3FAE2A"/></linearGradient><linearGradient id="paint5_linear" x1="0" x2="0" y1="0" y2="32" gradientTransform="translate(6.5e-6,40)" gradientUnits="userSpaceOnUse"><stop id="stop86" stop-color="#BBB" stop-opacity=".1"/><stop id="stop88" offset="1" stop-opacity=".1"/></linearGradient><clipPath id="clip0"><rect id="rect91" width="26" height="15.945" x="0" y="0" fill="#fff" transform="translate(3,9)"/></clipPath></defs><metadata id="metadata1034"/><g id="layer1" transform="translate(-110.52603,-151.5848)"><g style="fill:none" id="g1192" transform="matrix(0.26458333,0,0,0.26458333,110.52603,151.5848)"><path id="path2" fill="#0f1418" d="M 102,0 H 31 v 32 h 71 c 2.761,0 5,-2.2386 5,-5 V 5 c 0,-2.76142 -2.239,-5 -5,-5 z"/><path id="path4" fill="#fff" stroke="#1c2125" d="M 5.0897144,0.0557037 H 31.128694 V 32.005076 H 5.0897144 c -2.53781,0 -4.59511419,-2.0764 -4.59511419,-4.637812 V 4.6935158 c 0,-2.5613914 2.05730419,-4.6378121 4.59511419,-4.6378121 z" style="fill:#e535ab;fill-opacity:1;stroke:none;stroke-width:1.02586"/><text style="font-style:normal;font-weight:400;font-size:64.7074px;line-height:0;font-family:sans-serif;letter-spacing:1.76284px;fill:#fff;fill-opacity:1;stroke:none;stroke-width:1.61769" id="text106" x="38.172" y="19.001" transform="scale(0.94185708,1.0617322)" xml:space="preserve"><tspan id="tspan104" x="38.172" y="19.001" style="font-style:normal;font-variant:normal;font-weight:700;font-stretch:normal;font-size:16.1769px;line-height:1.25;font-family:'Myriad Pro';-inkscape-font-specification:'Myriad Pro Bold';fill:#fff;fill-opacity:1;stroke-width:1.61769">GraphQL</tspan></text></g><path style="fill:#000;stroke-width:.024136" id="path873"/><path style="fill:#000;stroke-width:.024136" id="path871"/><g id="g943" transform="matrix(1.1021362,0,0,1.0612817,-4.3223425,-19.048245)" style="fill:#f2f2f2"><circle style="fill:#f2f2f2;fill-opacity:1;stroke:none;stroke-width:.182966" id="path875" cx="110.399" cy="-163.282" r=".617" transform="scale(1,-1)"/><circle style="fill:#f2f2f2;fill-opacity:1;stroke:none;stroke-width:.182966" id="circle877" cx="108.013" cy="-161.853" r=".617" transform="scale(1,-1)"/><circle style="fill:#f2f2f2;fill-opacity:1;stroke:none;stroke-width:.182966" id="circle879" cx="105.638" cy="-163.259" r=".617" transform="scale(1,-1)"/><circle style="fill:#f2f2f2;fill-opacity:1;stroke:none;stroke-width:.182966" id="circle881" cx="105.638" cy="-166.153" r=".617" transform="scale(1,-1)"/><circle style="fill:#f2f2f2;fill-opacity:1;stroke:none;stroke-width:.182966" id="circle883" cx="110.422" cy="-166.129" r=".617" transform="scale(1,-1)"/><circle style="fill:#f2f2f2;fill-opacity:1;stroke:none;stroke-width:.182966" id="circle885" cx="108.06" cy="-167.558" r=".617" transform="scale(1,-1)"/><rect style="fill:#f2f2f2;fill-opacity:1;stroke:none;stroke-width:.22856" id="rect887" width="4.505" height=".307" x="105.761" y="165.995" ry=".154"/><rect style="fill:#f2f2f2;fill-opacity:1;stroke:none;stroke-width:.226505" id="rect889" width=".26" height="2.244" x="105.541" y="-165.759" ry="0" transform="scale(1,-1)"/><rect style="fill:#f2f2f2;fill-opacity:1;stroke:none;stroke-width:.175631" id="rect895" width="2.66" height=".307" x="163.733" y="-110.18" ry="0" transform="matrix(0.00236196,0.99999721,-0.99999966,8.235172e-4,0,0)"/><rect style="fill:#f2f2f2;fill-opacity:1;stroke:none;stroke-width:.175631" id="rect897" width="2.66" height=".307" x="175.163" y="85.032" ry="0" transform="matrix(0.86318448,0.50488866,-0.50621602,0.86240671,0,0)"/><rect style="fill:#f2f2f2;fill-opacity:1;stroke:none;stroke-width:.175631" id="rect899" width="2.66" height=".307" x="6.463" y="194.221" ry="0" transform="matrix(0.85638709,-0.51633434,0.51501622,0.85718043,0,0)"/><rect style="fill:#f2f2f2;fill-opacity:1;stroke:none;stroke-width:.216378" id="rect905" width="4.038" height=".307" x="-91.857" y="173.342" ry="0" transform="matrix(0.48894665,-0.87231369,0.86946397,0.49399636,0,0)"/><rect style="fill:#f2f2f2;fill-opacity:1;stroke:none;stroke-width:.216378" id="rect907" width="4.038" height=".307" x="-198.243" y="17.004" ry="0" transform="matrix(-0.47924425,-0.87768158,0.88044562,-0.47414713,0,0)"/><rect style="fill:#f2f2f2;fill-opacity:1;stroke:none;stroke-width:.164437" id="rect909" width="2.332" height=".307" x="177.977" y="83.996" ry=".154" transform="rotate(32.214618)"/><rect style="fill:#f2f2f2;fill-opacity:1;stroke:none;stroke-width:.164437" id="rect911" width="2.332" height=".307" x="6.444" y="199.166" ry=".154" transform="rotate(-31.022761)"/></g></g></svg>