<?xml version="1.0" encoding="UTF-8" standalone="no"?>
<svg
   xmlns:dc="http://purl.org/dc/elements/1.1/"
   xmlns:cc="http://creativecommons.org/ns#"
   xmlns:rdf="http://www.w3.org/1999/02/22-rdf-syntax-ns#"
   xmlns:svg="http://www.w3.org/2000/svg"
   xmlns="http://www.w3.org/2000/svg"
   xmlns:sodipodi="http://sodipodi.sourceforge.net/DTD/sodipodi-0.dtd"
   xmlns:inkscape="http://www.inkscape.org/namespaces/inkscape"
   width="130"
   height="32"
   viewBox="0 0 130 32"
   fill="none"
   version="1.1"
   id="svg19"
   sodipodi:docname="js.svg"
   inkscape:version="1.0.2 (e86c870879, 2021-01-15, custom)">
  <metadata
     id="metadata23">
    <rdf:RDF>
      <cc:Work
         rdf:about="">
        <dc:format>image/svg+xml</dc:format>
        <dc:type
           rdf:resource="http://purl.org/dc/dcmitype/StillImage" />
      </cc:Work>
    </rdf:RDF>
  </metadata>
  <sodipodi:namedview
     pagecolor="#ffffff"
     bordercolor="#666666"
     borderopacity="1"
     objecttolerance="10"
     gridtolerance="10"
     guidetolerance="10"
     inkscape:pageopacity="0"
     inkscape:pageshadow="2"
     inkscape:window-width="1366"
     inkscape:window-height="705"
     id="namedview21"
     showgrid="false"
     inkscape:zoom="7.8615385"
     inkscape:cx="74.476515"
     inkscape:cy="5.9254219"
     inkscape:window-x="-8"
     inkscape:window-y="-8"
     inkscape:window-maximized="1"
     inkscape:current-layer="svg19" />
  <path
     d="M125 0H31V32H125C127.761 32 130 29.7614 130 27V5C130 2.23858 127.761 0 125 0Z"
     fill="#0F1418"
     id="path2" />
  <path
     d="M31 0H5C2.23858 0 0 2.23858 0 5V27C0 29.7614 2.23858 32 5 32H31V0Z"
     fill="#F1C731"
     id="path4" />
  <path
     d="M15.3346 28.0498C15.0155 28.0498 14.6917 27.9641 14.4107 27.8022L11.4723 26.0639C11.0342 25.8162 11.2485 25.7305 11.3913 25.6829C11.9771 25.4781 12.0962 25.4353 12.72 25.0781C12.7867 25.04 12.8724 25.0543 12.9391 25.0971L15.1965 26.4354C15.2774 26.483 15.3917 26.483 15.4679 26.4354L24.264 21.3587C24.345 21.311 24.3974 21.2158 24.3974 21.1205V10.9672C24.3974 10.8671 24.345 10.7767 24.2593 10.7243L15.4679 5.65234C15.387 5.60472 15.2774 5.60472 15.1965 5.65234L6.40989 10.729C6.32417 10.7767 6.27178 10.8719 6.27178 10.9719V21.1205C6.27178 21.2158 6.32417 21.311 6.40989 21.3539L8.81965 22.7445C10.1293 23.397 10.9294 22.6302 10.9294 21.854V11.8339C10.9294 11.691 11.0437 11.5815 11.1866 11.5815H12.3009C12.4391 11.5815 12.5581 11.691 12.5581 11.8339V21.8587C12.5581 23.6017 11.6056 24.6018 9.9531 24.6018C9.44352 24.6018 9.04348 24.6018 7.92909 24.0494L5.6241 22.7207C5.05261 22.3921 4.7002 21.7778 4.7002 21.1158V10.9672C4.7002 10.3099 5.05261 9.69084 5.6241 9.36224L14.4107 4.28554C14.9679 3.97123 15.706 3.97123 16.2585 4.28554L25.0546 9.367C25.6261 9.6956 25.9785 10.3099 25.9785 10.9719V21.1205C25.9785 21.7778 25.6261 22.3921 25.0546 22.7255L16.2585 27.8022C15.9775 27.9641 15.6584 28.0498 15.3346 28.0498ZM22.4353 18.0441C22.4353 16.1439 21.1494 15.639 18.4492 15.2819C15.7156 14.9199 15.4394 14.7342 15.4394 14.096C15.4394 13.5674 15.6727 12.8626 17.6967 12.8626C19.5017 12.8626 20.1684 13.2531 20.4446 14.4723C20.4684 14.5866 20.5732 14.6723 20.6923 14.6723H21.8352C21.9067 14.6723 21.9733 14.6437 22.021 14.5913C22.0686 14.5389 22.0924 14.4675 22.0876 14.3961C21.9114 12.2959 20.516 11.3196 17.6967 11.3196C15.1869 11.3196 13.6916 12.3768 13.6916 14.1532C13.6916 16.0772 15.1822 16.6106 17.5872 16.8487C20.4684 17.1297 20.6923 17.5535 20.6923 18.1202C20.6923 19.1013 19.9017 19.5204 18.0491 19.5204C15.7203 19.5204 15.2108 18.9346 15.0393 17.7774C15.0203 17.6535 14.9155 17.5631 14.7869 17.5631H13.6487C13.5058 17.5631 13.3963 17.6773 13.3963 17.8155C13.3963 19.2966 14.2011 21.0634 18.0539 21.0634C20.8351 21.0586 22.4353 19.9585 22.4353 18.0441V18.0441Z"
     fill="white"
     id="path6" />
  <defs
     id="defs17">
    <linearGradient
       id="paint0_linear"
       x1="0"
       y1="0"
       x2="0"
       y2="32"
       gradientUnits="userSpaceOnUse">
      <stop
         stop-color="#BBBBBB"
         stop-opacity="0.1"
         id="stop12" />
      <stop
         offset="1"
         stop-opacity="0.1"
         id="stop14" />
    </linearGradient>
  </defs>
  <text
     xml:space="preserve"
     style="font-style:normal;font-weight:normal;font-size:40px;line-height:1.25;font-family:sans-serif;fill:#f9f9f9;fill-opacity:1;stroke:none"
     x="37.906067"
     y="22.260273"
     id="text27"><tspan
       sodipodi:role="line"
       id="tspan25"
       x="37.906067"
       y="22.260273"
       style="font-style:normal;font-variant:normal;font-weight:normal;font-stretch:normal;font-size:20px;font-family:'Myriad Pro';-inkscape-font-specification:'Myriad Pro';letter-spacing:0px;fill:#f9f9f9">JavaScript</tspan></text>
</svg>
