<?xml version="1.0" encoding="UTF-8" standalone="no"?>
<svg
   xmlns:dc="http://purl.org/dc/elements/1.1/"
   xmlns:cc="http://creativecommons.org/ns#"
   xmlns:rdf="http://www.w3.org/1999/02/22-rdf-syntax-ns#"
   xmlns:svg="http://www.w3.org/2000/svg"
   xmlns="http://www.w3.org/2000/svg"
   xmlns:sodipodi="http://sodipodi.sourceforge.net/DTD/sodipodi-0.dtd"
   xmlns:inkscape="http://www.inkscape.org/namespaces/inkscape"
   width="28.310417mm"
   height="8.4666662mm"
   viewBox="0 0 28.310417 8.4666662"
   version="1.1"
   id="svg1037"
   inkscape:version="1.0.2 (e86c870879, 2021-01-15, custom)"
   sodipodi:docname="mongodb.svg">
  <defs
     id="defs1031">
    <linearGradient
       id="paint0_linear"
       x1="0"
       y1="0"
       x2="0"
       y2="32"
       gradientUnits="userSpaceOnUse">
      <stop
         stop-color="#BBBBBB"
         stop-opacity="0.1"
         id="stop1063" />
      <stop
         offset="1"
         stop-opacity="0.1"
         id="stop1065" />
    </linearGradient>
    <linearGradient
       id="paint0_linear-6"
       x1="13.6055"
       y1="13.7373"
       x2="10.8972"
       y2="17.9928"
       gradientUnits="userSpaceOnUse">
      <stop
         stop-color="#41873F"
         id="stop37" />
      <stop
         offset="0.3288"
         stop-color="#418B3D"
         id="stop39" />
      <stop
         offset="0.6352"
         stop-color="#419637"
         id="stop41" />
      <stop
         offset="0.9319"
         stop-color="#3FA92D"
         id="stop43" />
      <stop
         offset="1"
         stop-color="#3FAE2A"
         id="stop45" />
    </linearGradient>
    <linearGradient
       id="paint1_linear"
       x1="12.2236"
       y1="16.1224"
       x2="19.006399"
       y2="12.4373"
       gradientUnits="userSpaceOnUse">
      <stop
         offset="0.1376"
         stop-color="#41873F"
         id="stop48" />
      <stop
         offset="0.4032"
         stop-color="#54A044"
         id="stop50" />
      <stop
         offset="0.7136"
         stop-color="#66B848"
         id="stop52" />
      <stop
         offset="0.9081"
         stop-color="#6CC04A"
         id="stop54" />
    </linearGradient>
    <linearGradient
       id="paint2_linear"
       x1="9.7412796"
       y1="15.7877"
       x2="15.4588"
       y2="15.7877"
       gradientUnits="userSpaceOnUse">
      <stop
         offset="0.09192"
         stop-color="#6CC04A"
         id="stop57" />
      <stop
         offset="0.2864"
         stop-color="#66B848"
         id="stop59" />
      <stop
         offset="0.5968"
         stop-color="#54A044"
         id="stop61" />
      <stop
         offset="0.8624"
         stop-color="#41873F"
         id="stop63" />
    </linearGradient>
    <linearGradient
       id="paint3_linear"
       x1="9.7412701"
       y1="18.1577"
       x2="15.4588"
       y2="18.1577"
       gradientUnits="userSpaceOnUse">
      <stop
         offset="0.09192"
         stop-color="#6CC04A"
         id="stop66" />
      <stop
         offset="0.2864"
         stop-color="#66B848"
         id="stop68" />
      <stop
         offset="0.5968"
         stop-color="#54A044"
         id="stop70" />
      <stop
         offset="0.8624"
         stop-color="#41873F"
         id="stop72" />
    </linearGradient>
    <linearGradient
       id="paint4_linear"
       x1="16.2917"
       y1="13.6022"
       x2="14.8433"
       y2="21.192101"
       gradientUnits="userSpaceOnUse">
      <stop
         stop-color="#41873F"
         id="stop75" />
      <stop
         offset="0.3288"
         stop-color="#418B3D"
         id="stop77" />
      <stop
         offset="0.6352"
         stop-color="#419637"
         id="stop79" />
      <stop
         offset="0.9319"
         stop-color="#3FA92D"
         id="stop81" />
      <stop
         offset="1"
         stop-color="#3FAE2A"
         id="stop83" />
    </linearGradient>
    <linearGradient
       id="paint5_linear"
       x1="0"
       y1="0"
       x2="0"
       y2="32"
       gradientUnits="userSpaceOnUse"
       gradientTransform="translate(6.5e-6,40)">
      <stop
         stop-color="#BBBBBB"
         stop-opacity="0.1"
         id="stop86" />
      <stop
         offset="1"
         stop-opacity="0.1"
         id="stop88" />
    </linearGradient>
    <clipPath
       id="clip0">
      <rect
         width="26"
         height="15.9453"
         fill="#ffffff"
         transform="translate(3,9)"
         id="rect91"
         x="0"
         y="0" />
    </clipPath>
  </defs>
  <sodipodi:namedview
     id="base"
     pagecolor="#ffffff"
     bordercolor="#666666"
     borderopacity="1.0"
     inkscape:pageopacity="0.0"
     inkscape:pageshadow="2"
     inkscape:zoom="2.8"
     inkscape:cx="-16.182349"
     inkscape:cy="-11.111735"
     inkscape:document-units="mm"
     inkscape:current-layer="g1192"
     inkscape:document-rotation="0"
     showgrid="false"
     inkscape:window-width="1366"
     inkscape:window-height="705"
     inkscape:window-x="-8"
     inkscape:window-y="-8"
     inkscape:window-maximized="1" />
  <metadata
     id="metadata1034">
    <rdf:RDF>
      <cc:Work
         rdf:about="">
        <dc:format>image/svg+xml</dc:format>
        <dc:type
           rdf:resource="http://purl.org/dc/dcmitype/StillImage" />
        <dc:title></dc:title>
      </cc:Work>
    </rdf:RDF>
  </metadata>
  <g
     inkscape:label="Capa 1"
     inkscape:groupmode="layer"
     id="layer1"
     transform="translate(-110.52603,-151.5848)">
    <g
       style="fill:none"
       id="g1192"
       transform="matrix(0.26458333,0,0,0.26458333,110.52603,151.5848)">
      <path
         d="M 102,0 H 31 v 32 h 71 c 2.761,0 5,-2.2386 5,-5 V 5 c 0,-2.76142 -2.239,-5 -5,-5 z"
         fill="#0f1418"
         id="path2" />
      <path
         d="M 5.0897144,0.0557037 H 31.128694 V 32.005076 H 5.0897144 c -2.53781,0 -4.59511419,-2.0764 -4.59511419,-4.637812 V 4.6935158 c 0,-2.5613914 2.05730419,-4.6378121 4.59511419,-4.6378121 z"
         fill="#ffffff"
         stroke="#1c2125"
         id="path4"
         style="fill:#808000;fill-opacity:1;stroke:none;stroke-width:1.02586" />
      <text
         xml:space="preserve"
         style="font-style:normal;font-weight:normal;font-size:64.7074px;line-height:0;font-family:sans-serif;letter-spacing:0.52000001px;fill:#ffffff;fill-opacity:1;stroke:none;stroke-width:1.61769;"
         x="38.172112"
         y="19.00135"
         id="text106"
         transform="scale(0.94185708,1.0617322)"><tspan
           sodipodi:role="line"
           id="tspan104"
           x="38.172112"
           y="19.00135"
           style="font-style:normal;font-variant:normal;font-weight:bold;font-stretch:normal;font-size:16.1769px;line-height:1.25;font-family:'Myriad Pro';-inkscape-font-specification:'Myriad Pro Bold';letter-spacing:0.52000001px;fill:#ffffff;fill-opacity:1;stroke-width:1.61769;">MongoDB</tspan></text>
    </g>
    <path
       style="fill:#000000;stroke-width:0.024136"
       id="path873"
       d="" />
    <path
       style="fill:#000000;stroke-width:0.024136"
       id="path871"
       d="" />
    <rect
       style="fill:#782121;fill-opacity:1;stroke:none;stroke-width:0.137579"
       id="rect969"
       width="0.17297868"
       height="1.7372519"
       x="114.98015"
       y="-159.21869"
       transform="scale(1,-1)" />
    <path
       style="fill:#e6e6e6;fill-opacity:1;stroke:none;stroke-width:0.264583px;stroke-linecap:butt;stroke-linejoin:miter;stroke-opacity:1"
       d="m 114.87657,152.69284 c -0.063,0.0945 -0.11862,0.19435 -0.18899,0.28349 -0.1253,0.15872 -0.3187,0.26544 -0.42522,0.42522 -0.0241,0.0361 -0.0722,0.0573 -0.0945,0.0945 -0.08,0.13342 -0.14407,0.33307 -0.25986,0.44885 -0.0118,0.0118 -0.0354,0.0118 -0.0472,0.0236 -0.0428,0.0428 -0.11232,0.15376 -0.14174,0.21261 -0.0433,0.0866 -0.0247,0.19326 -0.0472,0.28348 -0.0142,0.0568 -0.0598,0.11013 -0.0709,0.16536 -0.0184,0.092 -0.005,0.19191 -0.0236,0.28349 -0.0145,0.0723 -0.0412,0.15322 -0.0709,0.21261 -0.0281,0.0563 0,0.3935 0,0.47247 0,0.25986 0,0.51972 0,0.77957 0,0.0925 -0.0334,0.24715 0,0.33073 0.0252,0.0631 0.0647,0.15293 0.0945,0.21261 0.0297,0.0595 0.004,0.172 0.0472,0.23624 0.004,0.006 0.0822,0.0698 0.0945,0.0945 0.0161,0.0322 0.0174,0.0882 0.0472,0.11812 0.0135,0.0135 0.0597,0.0137 0.0709,0.0472 0.005,0.0149 -0.004,0.032 0,0.0472 0.014,0.056 0.0654,0.0745 0.0945,0.11811 0.17449,0.26173 0.45403,0.42782 0.73233,0.56697 0.0639,0.0319 0.1041,0.11111 0.16536,0.14174 0.0366,0.0183 0.0478,-0.008 0.0945,0.0236 0.0418,0.0279 0.0428,0.0686 0.0945,0.0945 0.005,0.002 0.0675,0.003 0.0709,0 0.0394,-0.0394 0.0511,-0.0786 0.0709,-0.11811 0.0246,-0.0491 0.0543,-0.0339 0.0945,-0.0472 0.0515,0.009 0.008,-0.0394 0.0236,-0.0472 0.0141,-0.007 0.0332,0.007 0.0472,0 0.0222,-0.0111 -0.006,-0.0325 0.0236,-0.0472 0.0223,-0.0111 0.0486,-0.0125 0.0709,-0.0236 0.061,-0.0305 -0.0156,-0.042 0.0709,-0.0709 0.10257,-0.0342 -0.0133,9.8e-4 0.0945,-0.0709 0.027,-0.018 0.0654,-0.009 0.0945,-0.0236 0.0266,-0.0133 0.0429,-0.0615 0.0709,-0.0709 0.0149,-0.005 0.0332,0.007 0.0473,0 0.0157,-0.008 0.009,-0.0375 0.0236,-0.0472 0.0529,-0.0352 0.12143,-0.0742 0.16537,-0.11811 0.0111,-0.0111 -0.007,-0.0332 0,-0.0472 0.0434,-0.0867 0.10782,-0.15811 0.14174,-0.25986 0.0118,-0.0354 -0.0118,-0.0827 0,-0.11812 0.0195,-0.0585 0.049,-0.12335 0.0709,-0.18899 0.0216,-0.0649 -0.01,-0.19328 0.0236,-0.25985 0.03,-0.06 0.0282,0.0242 0.0473,-0.0709 0.009,-0.0441 0.004,-0.10221 0.0236,-0.14174 0.0235,-0.047 0.0946,-0.14202 0.11812,-0.18898 0.0106,-0.0211 -0.0167,-0.0542 0,-0.0709 0.006,-0.006 0.0181,0.006 0.0236,0 0.0167,-0.0167 -0.0106,-0.0497 0,-0.0709 0.01,-0.0199 0.0349,-0.0287 0.0473,-0.0472 0.0339,-0.0509 0,-0.24112 0,-0.30711 0,-0.19895 0.009,-0.39707 -0.0236,-0.59059 -0.004,-0.0233 0.009,-0.0489 0,-0.0709 -0.008,-0.0207 -0.0349,-0.0287 -0.0473,-0.0472 -0.0131,-0.0197 0.006,-0.048 0,-0.0709 -0.015,-0.0599 -0.0474,-0.083 -0.0709,-0.14175 -0.0181,-0.0451 -0.006,-0.0955 -0.0236,-0.14174 -0.0285,-0.0759 -0.088,-0.13734 -0.11812,-0.21261 -0.0203,-0.0507 -0.0303,-0.11458 -0.0473,-0.16536 -0.027,-0.0809 -0.10477,-0.13868 -0.14174,-0.21262 -0.007,-0.0141 0.007,-0.0332 0,-0.0472 -0.0226,-0.0451 -0.0664,-0.076 -0.0945,-0.11812 -0.1041,-0.0238 -0.025,-0.0972 -0.0473,-0.14174 -0.029,-0.0581 -0.0898,-0.1088 -0.11812,-0.16537 -0.007,-0.0141 0.004,-0.032 0,-0.0472 0.0428,-0.0988 -0.0373,-0.0273 -0.0472,-0.0472 -0.007,-0.0141 0.005,-0.0323 0,-0.0472 -0.0206,-0.0617 -0.0792,-0.15428 -0.11811,-0.21261 -0.0497,-0.0745 -0.39926,-0.40004 -0.47247,-0.44885 -0.0873,-0.0582 0.0864,0.13363 -0.0709,-0.0236 -0.005,-0.005 -0.0456,-0.0937 -0.0473,-0.0945 -0.032,-0.016 -0.0957,-0.002 -0.11812,-0.0472 -0.0102,-0.0205 -0.0231,-0.16332 -0.0236,-0.16537 z"
       id="path963" />
  </g>
</svg>
