<svg xmlns="http://www.w3.org/2000/svg" xmlns:svg="http://www.w3.org/2000/svg" id="svg1037" width="107" height="32" version="1.1" viewBox="0 0 28.31 8.467"><defs id="defs1031"><linearGradient id="paint0_linear" x1="0" x2="0" y1="0" y2="32" gradientUnits="userSpaceOnUse"><stop id="stop1063" stop-color="#BBB" stop-opacity=".1"/><stop id="stop1065" offset="1" stop-opacity=".1"/></linearGradient><linearGradient id="paint0_linear-6" x1="13.605" x2="10.897" y1="13.737" y2="17.993" gradientUnits="userSpaceOnUse"><stop id="stop37" stop-color="#41873F"/><stop id="stop39" offset=".329" stop-color="#418B3D"/><stop id="stop41" offset=".635" stop-color="#419637"/><stop id="stop43" offset=".932" stop-color="#3FA92D"/><stop id="stop45" offset="1" stop-color="#3FAE2A"/></linearGradient><linearGradient id="paint1_linear" x1="12.224" x2="19.006" y1="16.122" y2="12.437" gradientUnits="userSpaceOnUse"><stop id="stop48" offset=".138" stop-color="#41873F"/><stop id="stop50" offset=".403" stop-color="#54A044"/><stop id="stop52" offset=".714" stop-color="#66B848"/><stop id="stop54" offset=".908" stop-color="#6CC04A"/></linearGradient><linearGradient id="paint2_linear" x1="9.741" x2="15.459" y1="15.788" y2="15.788" gradientUnits="userSpaceOnUse"><stop id="stop57" offset=".092" stop-color="#6CC04A"/><stop id="stop59" offset=".286" stop-color="#66B848"/><stop id="stop61" offset=".597" stop-color="#54A044"/><stop id="stop63" offset=".862" stop-color="#41873F"/></linearGradient><linearGradient id="paint3_linear" x1="9.741" x2="15.459" y1="18.158" y2="18.158" gradientUnits="userSpaceOnUse"><stop id="stop66" offset=".092" stop-color="#6CC04A"/><stop id="stop68" offset=".286" stop-color="#66B848"/><stop id="stop70" offset=".597" stop-color="#54A044"/><stop id="stop72" offset=".862" stop-color="#41873F"/></linearGradient><linearGradient id="paint4_linear" x1="16.292" x2="14.843" y1="13.602" y2="21.192" gradientUnits="userSpaceOnUse"><stop id="stop75" stop-color="#41873F"/><stop id="stop77" offset=".329" stop-color="#418B3D"/><stop id="stop79" offset=".635" stop-color="#419637"/><stop id="stop81" offset=".932" stop-color="#3FA92D"/><stop id="stop83" offset="1" stop-color="#3FAE2A"/></linearGradient><linearGradient id="paint5_linear" x1="0" x2="0" y1="0" y2="32" gradientTransform="translate(6.5e-6,40)" gradientUnits="userSpaceOnUse"><stop id="stop86" stop-color="#BBB" stop-opacity=".1"/><stop id="stop88" offset="1" stop-opacity=".1"/></linearGradient><clipPath id="clip0"><rect id="rect91" width="26" height="15.945" x="0" y="0" fill="#fff" transform="translate(3,9)"/></clipPath></defs><metadata id="metadata1034"/><g id="layer1" transform="translate(-110.52603,-151.5848)"><g style="fill:none" id="g1192" transform="matrix(0.26458333,0,0,0.26458333,110.52603,151.5848)"><path id="path2" fill="#0f1418" d="M 102,0 H 31 v 32 h 71 c 2.761,0 5,-2.2386 5,-5 V 5 c 0,-2.76142 -2.239,-5 -5,-5 z"/><path id="path4" fill="#fff" stroke="#1c2125" d="M 5.0897144,0.0557037 H 31.128694 V 32.005076 H 5.0897144 c -2.53781,0 -4.59511419,-2.0764 -4.59511419,-4.637812 V 4.6935158 c 0,-2.5613914 2.05730419,-4.6378121 4.59511419,-4.6378121 z" style="fill:olive;fill-opacity:1;stroke:none;stroke-width:1.02586"/><text style="font-style:normal;font-weight:400;font-size:64.7074px;line-height:0;font-family:sans-serif;letter-spacing:.52000001px;fill:#fff;fill-opacity:1;stroke:none;stroke-width:1.61769" id="text106" x="38.172" y="19.001" transform="scale(0.94185708,1.0617322)" xml:space="preserve"><tspan id="tspan104" x="38.172" y="19.001" style="font-style:normal;font-variant:normal;font-weight:700;font-stretch:normal;font-size:16.1769px;line-height:1.25;font-family:'Myriad Pro';-inkscape-font-specification:'Myriad Pro Bold';letter-spacing:.52000001px;fill:#fff;fill-opacity:1;stroke-width:1.61769">MongoDB</tspan></text></g><path style="fill:#000;stroke-width:.024136" id="path873"/><path style="fill:#000;stroke-width:.024136" id="path871"/><rect style="fill:#782121;fill-opacity:1;stroke:none;stroke-width:.137579" id="rect969" width=".173" height="1.737" x="114.98" y="-159.219" transform="scale(1,-1)"/><path style="fill:#e6e6e6;fill-opacity:1;stroke:none;stroke-width:.264583px;stroke-linecap:butt;stroke-linejoin:miter;stroke-opacity:1" id="path963" d="m 114.87657,152.69284 c -0.063,0.0945 -0.11862,0.19435 -0.18899,0.28349 -0.1253,0.15872 -0.3187,0.26544 -0.42522,0.42522 -0.0241,0.0361 -0.0722,0.0573 -0.0945,0.0945 -0.08,0.13342 -0.14407,0.33307 -0.25986,0.44885 -0.0118,0.0118 -0.0354,0.0118 -0.0472,0.0236 -0.0428,0.0428 -0.11232,0.15376 -0.14174,0.21261 -0.0433,0.0866 -0.0247,0.19326 -0.0472,0.28348 -0.0142,0.0568 -0.0598,0.11013 -0.0709,0.16536 -0.0184,0.092 -0.005,0.19191 -0.0236,0.28349 -0.0145,0.0723 -0.0412,0.15322 -0.0709,0.21261 -0.0281,0.0563 0,0.3935 0,0.47247 0,0.25986 0,0.51972 0,0.77957 0,0.0925 -0.0334,0.24715 0,0.33073 0.0252,0.0631 0.0647,0.15293 0.0945,0.21261 0.0297,0.0595 0.004,0.172 0.0472,0.23624 0.004,0.006 0.0822,0.0698 0.0945,0.0945 0.0161,0.0322 0.0174,0.0882 0.0472,0.11812 0.0135,0.0135 0.0597,0.0137 0.0709,0.0472 0.005,0.0149 -0.004,0.032 0,0.0472 0.014,0.056 0.0654,0.0745 0.0945,0.11811 0.17449,0.26173 0.45403,0.42782 0.73233,0.56697 0.0639,0.0319 0.1041,0.11111 0.16536,0.14174 0.0366,0.0183 0.0478,-0.008 0.0945,0.0236 0.0418,0.0279 0.0428,0.0686 0.0945,0.0945 0.005,0.002 0.0675,0.003 0.0709,0 0.0394,-0.0394 0.0511,-0.0786 0.0709,-0.11811 0.0246,-0.0491 0.0543,-0.0339 0.0945,-0.0472 0.0515,0.009 0.008,-0.0394 0.0236,-0.0472 0.0141,-0.007 0.0332,0.007 0.0472,0 0.0222,-0.0111 -0.006,-0.0325 0.0236,-0.0472 0.0223,-0.0111 0.0486,-0.0125 0.0709,-0.0236 0.061,-0.0305 -0.0156,-0.042 0.0709,-0.0709 0.10257,-0.0342 -0.0133,9.8e-4 0.0945,-0.0709 0.027,-0.018 0.0654,-0.009 0.0945,-0.0236 0.0266,-0.0133 0.0429,-0.0615 0.0709,-0.0709 0.0149,-0.005 0.0332,0.007 0.0473,0 0.0157,-0.008 0.009,-0.0375 0.0236,-0.0472 0.0529,-0.0352 0.12143,-0.0742 0.16537,-0.11811 0.0111,-0.0111 -0.007,-0.0332 0,-0.0472 0.0434,-0.0867 0.10782,-0.15811 0.14174,-0.25986 0.0118,-0.0354 -0.0118,-0.0827 0,-0.11812 0.0195,-0.0585 0.049,-0.12335 0.0709,-0.18899 0.0216,-0.0649 -0.01,-0.19328 0.0236,-0.25985 0.03,-0.06 0.0282,0.0242 0.0473,-0.0709 0.009,-0.0441 0.004,-0.10221 0.0236,-0.14174 0.0235,-0.047 0.0946,-0.14202 0.11812,-0.18898 0.0106,-0.0211 -0.0167,-0.0542 0,-0.0709 0.006,-0.006 0.0181,0.006 0.0236,0 0.0167,-0.0167 -0.0106,-0.0497 0,-0.0709 0.01,-0.0199 0.0349,-0.0287 0.0473,-0.0472 0.0339,-0.0509 0,-0.24112 0,-0.30711 0,-0.19895 0.009,-0.39707 -0.0236,-0.59059 -0.004,-0.0233 0.009,-0.0489 0,-0.0709 -0.008,-0.0207 -0.0349,-0.0287 -0.0473,-0.0472 -0.0131,-0.0197 0.006,-0.048 0,-0.0709 -0.015,-0.0599 -0.0474,-0.083 -0.0709,-0.14175 -0.0181,-0.0451 -0.006,-0.0955 -0.0236,-0.14174 -0.0285,-0.0759 -0.088,-0.13734 -0.11812,-0.21261 -0.0203,-0.0507 -0.0303,-0.11458 -0.0473,-0.16536 -0.027,-0.0809 -0.10477,-0.13868 -0.14174,-0.21262 -0.007,-0.0141 0.007,-0.0332 0,-0.0472 -0.0226,-0.0451 -0.0664,-0.076 -0.0945,-0.11812 -0.1041,-0.0238 -0.025,-0.0972 -0.0473,-0.14174 -0.029,-0.0581 -0.0898,-0.1088 -0.11812,-0.16537 -0.007,-0.0141 0.004,-0.032 0,-0.0472 0.0428,-0.0988 -0.0373,-0.0273 -0.0472,-0.0472 -0.007,-0.0141 0.005,-0.0323 0,-0.0472 -0.0206,-0.0617 -0.0792,-0.15428 -0.11811,-0.21261 -0.0497,-0.0745 -0.39926,-0.40004 -0.47247,-0.44885 -0.0873,-0.0582 0.0864,0.13363 -0.0709,-0.0236 -0.005,-0.005 -0.0456,-0.0937 -0.0473,-0.0945 -0.032,-0.016 -0.0957,-0.002 -0.11812,-0.0472 -0.0102,-0.0205 -0.0231,-0.16332 -0.0236,-0.16537 z"/></g></svg>