<?xml version="1.0" encoding="UTF-8" standalone="no"?>
<svg
   xmlns:dc="http://purl.org/dc/elements/1.1/"
   xmlns:cc="http://creativecommons.org/ns#"
   xmlns:rdf="http://www.w3.org/1999/02/22-rdf-syntax-ns#"
   xmlns:svg="http://www.w3.org/2000/svg"
   xmlns="http://www.w3.org/2000/svg"
   xmlns:sodipodi="http://sodipodi.sourceforge.net/DTD/sodipodi-0.dtd"
   xmlns:inkscape="http://www.inkscape.org/namespaces/inkscape"
   width="107"
   height="32"
   viewBox="0 0 107 32"
   fill="none"
   version="1.1"
   id="svg96"
   sodipodi:docname="nodejs.svg"
   inkscape:version="1.0.2 (e86c870879, 2021-01-15, custom)">
  <metadata
     id="metadata100">
    <rdf:RDF>
      <cc:Work
         rdf:about="">
        <dc:format>image/svg+xml</dc:format>
        <dc:type
           rdf:resource="http://purl.org/dc/dcmitype/StillImage" />
      </cc:Work>
    </rdf:RDF>
  </metadata>
  <sodipodi:namedview
     pagecolor="#ffffff"
     bordercolor="#666666"
     borderopacity="1"
     objecttolerance="10"
     gridtolerance="10"
     guidetolerance="10"
     inkscape:pageopacity="0"
     inkscape:pageshadow="2"
     inkscape:window-width="1366"
     inkscape:window-height="705"
     id="namedview98"
     showgrid="false"
     inkscape:zoom="6.753861"
     inkscape:cx="58.15281"
     inkscape:cy="24.87616"
     inkscape:window-x="-8"
     inkscape:window-y="-8"
     inkscape:window-maximized="1"
     inkscape:current-layer="svg96"
     inkscape:document-rotation="0" />
  <path
     d="M102 0H31V32H102C104.761 32 107 29.7614 107 27V5C107 2.23858 104.761 0 102 0Z"
     fill="#0F1418"
     id="path2" />
  <path
     d="M5 0.5H30.5V31.5H5C2.51472 31.5 0.5 29.4853 0.5 27V5C0.5 2.51472 2.51472 0.5 5 0.5Z"
     fill="white"
     stroke="#1C2125"
     id="path4" />
  <g
     clip-path="url(#clip0)"
     id="g31">
    <path
       d="M15.8533 24.8993C15.7653 24.8993 15.6831 24.8759 15.6068 24.8348L14.8262 24.3711C14.7088 24.3066 14.7675 24.2831 14.8028 24.2714C14.9612 24.2185 14.9905 24.2068 15.1549 24.1129C15.1725 24.1011 15.196 24.107 15.2136 24.1188L15.8122 24.4768C15.8357 24.4885 15.865 24.4885 15.8826 24.4768L18.2244 23.121C18.2479 23.1093 18.2596 23.0858 18.2596 23.0565V20.3508C18.2596 20.3214 18.2479 20.298 18.2244 20.2863L15.8826 18.9364C15.8592 18.9246 15.8298 18.9246 15.8122 18.9364L13.4705 20.2863C13.447 20.298 13.4352 20.3273 13.4352 20.3508V23.0564C13.4352 23.0799 13.447 23.1092 13.4705 23.121L14.1102 23.4908C14.4565 23.6668 14.6736 23.4614 14.6736 23.256V20.5856C14.6736 20.5504 14.703 20.5151 14.7441 20.5151H15.0434C15.0786 20.5151 15.1138 20.5445 15.1138 20.5856V23.256C15.1138 23.7196 14.8614 23.9896 14.4212 23.9896C14.2863 23.9896 14.1806 23.9896 13.8813 23.8429L13.265 23.4908C13.1124 23.4027 13.0186 23.2384 13.0186 23.0623V20.3567C13.0186 20.1806 13.1124 20.0162 13.265 19.9282L15.6068 18.5725C15.7535 18.4903 15.9531 18.4903 16.0998 18.5725L18.4415 19.9282C18.5941 20.0162 18.6881 20.1806 18.6881 20.3567V23.0623C18.6881 23.2384 18.5941 23.4027 18.4415 23.4908L16.0998 24.8465C16.0235 24.8818 15.9355 24.8993 15.8533 24.8993H15.8533ZM16.5752 23.0389C15.5481 23.0389 15.3368 22.5693 15.3368 22.1702C15.3368 22.135 15.3662 22.0998 15.4073 22.0998H15.7124C15.7476 22.0998 15.777 22.1233 15.777 22.1585C15.824 22.4695 15.9589 22.6221 16.5811 22.6221C17.074 22.6221 17.2854 22.5106 17.2854 22.2465C17.2854 22.0939 17.2266 21.9824 16.4578 21.9061C15.8181 21.8415 15.419 21.7007 15.419 21.1901C15.419 20.7147 15.8181 20.433 16.4872 20.433C17.2384 20.433 17.6082 20.6912 17.6551 21.2546C17.6551 21.2723 17.6492 21.2898 17.6375 21.3075C17.6257 21.3192 17.6082 21.3309 17.5905 21.3309H17.2853C17.256 21.3309 17.2266 21.3075 17.2208 21.2781C17.1504 20.9553 16.9684 20.8497 16.4872 20.8497C15.9472 20.8497 15.8826 21.0375 15.8826 21.1783C15.8826 21.3485 15.9589 21.4014 16.6867 21.4953C17.4086 21.5892 17.749 21.7242 17.749 22.2289C17.7431 22.7454 17.3206 23.0389 16.5752 23.0389Z"
       fill="#539E43"
       id="path6" />
    <path
       d="M8.58735 14.3175C8.58735 14.2119 8.52864 14.112 8.43475 14.0592L5.94627 12.6272C5.90513 12.6037 5.85821 12.592 5.81129 12.5861H5.78778C5.74086 12.5861 5.69388 12.6037 5.6528 12.6272L3.16432 14.0592C3.07037 14.112 3.01172 14.2118 3.01172 14.3175L3.01761 18.1676C3.01761 18.2204 3.04696 18.2732 3.09388 18.2967C3.14086 18.3261 3.19951 18.3261 3.24064 18.2967L4.71964 17.4516C4.81354 17.3988 4.87224 17.299 4.87224 17.1933V15.3915C4.87224 15.2859 4.93089 15.1861 5.02484 15.1333L5.6528 14.7694C5.69977 14.74 5.75259 14.7283 5.8054 14.7283C5.85821 14.7283 5.91102 14.74 5.95216 14.7694L6.58012 15.1333C6.67406 15.1861 6.73271 15.2858 6.73271 15.3915V17.1933C6.73271 17.299 6.79142 17.3988 6.88531 17.4516L8.36432 18.2967C8.41129 18.3261 8.46994 18.3261 8.51691 18.2967C8.56389 18.2732 8.59324 18.2204 8.59324 18.1676L8.58735 14.3175Z"
       fill="#333333"
       id="path8" />
    <path
       d="M20.5485 9.01763C20.5016 8.99412 20.4429 8.99412 20.4018 9.01763C20.3548 9.04699 20.3255 9.09391 20.3255 9.14672V12.9617C20.3255 12.9968 20.3079 13.032 20.2727 13.0555C20.2375 13.0731 20.2022 13.0731 20.1671 13.0555L19.5449 12.6975C19.4993 12.6716 19.4477 12.6579 19.3953 12.6579C19.3428 12.6579 19.2912 12.6716 19.2456 12.6975L16.7571 14.1355C16.6632 14.1883 16.6045 14.2881 16.6045 14.3937V17.2636C16.6045 17.3693 16.6632 17.4691 16.7571 17.5219L19.2456 18.9598C19.2912 18.9858 19.3428 18.9994 19.3953 18.9994C19.4477 18.9994 19.4993 18.9858 19.5449 18.9598L22.0334 17.5219C22.1273 17.4691 22.186 17.3693 22.186 17.2636V10.1093C22.186 9.99776 22.1273 9.89803 22.0334 9.84516L20.5486 9.01763H20.5485ZM20.3197 16.3187C20.3197 16.3481 20.3079 16.3716 20.2844 16.3833L19.4334 16.8763C19.4215 16.8821 19.4085 16.8851 19.3953 16.8851C19.382 16.8851 19.369 16.8821 19.3571 16.8763L18.5061 16.3833C18.4826 16.3716 18.4709 16.3422 18.4709 16.3187V15.3327C18.4709 15.3034 18.4826 15.2799 18.5061 15.2682L19.3571 14.7752C19.369 14.7694 19.382 14.7663 19.3953 14.7663C19.4085 14.7663 19.4215 14.7694 19.4334 14.7752L20.2844 15.2682C20.3079 15.2799 20.3197 15.3093 20.3197 15.3327V16.3187Z"
       fill="#333333"
       id="path10" />
    <path
       d="M28.83 15.3093C28.9239 15.2565 28.9767 15.1567 28.9767 15.0511V14.3527C28.9767 14.247 28.918 14.1473 28.83 14.0944L26.3591 12.6624C26.3135 12.6365 26.2619 12.6228 26.2094 12.6228C26.157 12.6228 26.1054 12.6365 26.0598 12.6624L23.5713 14.1003C23.4774 14.1531 23.4187 14.2529 23.4187 14.3586V17.2285C23.4187 17.3341 23.4774 17.4339 23.5713 17.4867L26.0422 18.8953C26.1361 18.9481 26.2476 18.9481 26.3356 18.8953L27.8322 18.062C27.8792 18.0385 27.9085 17.9857 27.9085 17.9328C27.9085 17.88 27.8792 17.8272 27.8322 17.8037L25.332 16.3658C25.2851 16.3365 25.2557 16.2895 25.2557 16.2367V15.3387C25.2557 15.2859 25.2851 15.2331 25.332 15.2096L26.1126 14.7635C26.1354 14.7492 26.1619 14.7415 26.1889 14.7415C26.2159 14.7415 26.2423 14.7492 26.2652 14.7635L27.0458 15.2096C27.0927 15.2389 27.1221 15.2859 27.1221 15.3387V16.043C27.1221 16.0958 27.1514 16.1486 27.1984 16.1721C27.2453 16.2015 27.304 16.2015 27.3509 16.1721L28.83 15.3093V15.3093Z"
       fill="#333333"
       id="path12" />
    <path
       d="M26.171 15.1743C26.1797 15.1686 26.1899 15.1655 26.2004 15.1655C26.2108 15.1655 26.221 15.1686 26.2297 15.1743L26.7051 15.4502C26.7227 15.4618 26.7344 15.4795 26.7344 15.503V16.0547C26.7344 16.0781 26.7227 16.0957 26.7051 16.1075L26.2297 16.3833C26.221 16.389 26.2108 16.3921 26.2004 16.3921C26.1899 16.3921 26.1797 16.389 26.171 16.3833L25.6956 16.1075C25.678 16.0957 25.6663 16.0781 25.6663 16.0547V15.503C25.6663 15.4795 25.678 15.4618 25.6956 15.4502L26.171 15.1743V15.1743Z"
       fill="#539E43"
       id="path14" />
    <mask
       id="mask0"
       mask-type="alpha"
       maskUnits="userSpaceOnUse"
       x="9"
       y="12"
       width="7"
       height="7">
      <path
         d="M12.7485 12.6741C12.7029 12.6482 12.6513 12.6345 12.5988 12.6345C12.5463 12.6345 12.4948 12.6482 12.4492 12.6741L9.9783 14.1002C9.88436 14.153 9.83154 14.2528 9.83154 14.3584V17.2167C9.83154 17.3223 9.89025 17.4221 9.9783 17.4749L12.4492 18.9011C12.4948 18.9271 12.5463 18.9407 12.5988 18.9407C12.6513 18.9407 12.7029 18.9271 12.7485 18.9011L15.2194 17.4749C15.3133 17.4221 15.3661 17.3223 15.3661 17.2167V14.3585C15.3661 14.2529 15.3074 14.1531 15.2194 14.1003L12.7485 12.6741Z"
         fill="white"
         id="path16" />
    </mask>
    <g
       mask="url(#mask0)"
       id="g29">
      <path
         d="M12.7485 12.6741C12.7029 12.6482 12.6513 12.6345 12.5988 12.6345C12.5463 12.6345 12.4948 12.6482 12.4492 12.6741L9.9783 14.1002C9.88436 14.153 9.83154 14.2528 9.83154 14.3584V17.2167C9.83154 17.3223 9.89025 17.4221 9.9783 17.4749L12.4492 18.9011C12.4948 18.9271 12.5463 18.9407 12.5988 18.9407C12.6513 18.9407 12.7029 18.9271 12.7485 18.9011L15.2194 17.4749C15.3133 17.4221 15.3661 17.3223 15.3661 17.2167V14.3585C15.3661 14.2529 15.3074 14.1531 15.2194 14.1003L12.7485 12.6741Z"
         fill="url(#paint0_linear)"
         id="path19" />
      <path
         d="M15.2251 14.1003L12.7426 12.6741C12.7182 12.6618 12.6926 12.652 12.6662 12.6448L9.88428 17.4105C9.90732 17.4386 9.93515 17.4625 9.96649 17.4809L12.4491 18.9071C12.5195 18.9482 12.6017 18.9599 12.678 18.9364L15.2897 14.159C15.2721 14.1356 15.2486 14.1179 15.2251 14.1003V14.1003Z"
         fill="url(#paint1_linear)"
         id="path21" />
      <path
         fill-rule="evenodd"
         clip-rule="evenodd"
         d="M15.2311 17.475C15.3016 17.4339 15.3544 17.3635 15.3779 17.2872L12.6545 12.6389C12.5841 12.6272 12.5078 12.633 12.4433 12.6741L9.97827 14.0944L12.6369 18.9423C12.6756 18.9359 12.7131 18.9241 12.7484 18.9071L15.2311 17.475L15.2311 17.475Z"
         fill="url(#paint2_linear)"
         id="path23" />
      <path
         fill-rule="evenodd"
         clip-rule="evenodd"
         d="M15.2311 17.4751L12.7543 18.9013C12.7194 18.9191 12.6817 18.931 12.6428 18.9364L12.6898 19.0245L15.4365 17.434V17.3988L15.3661 17.2814C15.3543 17.3635 15.3015 17.434 15.2311 17.4751V17.4751Z"
         fill="url(#paint3_linear)"
         id="path25" />
      <path
         fill-rule="evenodd"
         clip-rule="evenodd"
         d="M15.2311 17.4751L12.7543 18.9013C12.7194 18.9191 12.6817 18.931 12.6428 18.9364L12.6898 19.0245L15.4365 17.434V17.3988L15.3661 17.2814C15.3543 17.3635 15.3015 17.434 15.2311 17.4751V17.4751Z"
         fill="url(#paint4_linear)"
         id="path27" />
    </g>
  </g>
  <defs
     id="defs94">
    <linearGradient
       id="paint0_linear"
       x1="13.6055"
       y1="13.7373"
       x2="10.8972"
       y2="17.9928"
       gradientUnits="userSpaceOnUse">
      <stop
         stop-color="#41873F"
         id="stop37" />
      <stop
         offset="0.3288"
         stop-color="#418B3D"
         id="stop39" />
      <stop
         offset="0.6352"
         stop-color="#419637"
         id="stop41" />
      <stop
         offset="0.9319"
         stop-color="#3FA92D"
         id="stop43" />
      <stop
         offset="1"
         stop-color="#3FAE2A"
         id="stop45" />
    </linearGradient>
    <linearGradient
       id="paint1_linear"
       x1="12.2236"
       y1="16.1224"
       x2="19.0064"
       y2="12.4373"
       gradientUnits="userSpaceOnUse">
      <stop
         offset="0.1376"
         stop-color="#41873F"
         id="stop48" />
      <stop
         offset="0.4032"
         stop-color="#54A044"
         id="stop50" />
      <stop
         offset="0.7136"
         stop-color="#66B848"
         id="stop52" />
      <stop
         offset="0.9081"
         stop-color="#6CC04A"
         id="stop54" />
    </linearGradient>
    <linearGradient
       id="paint2_linear"
       x1="9.74128"
       y1="15.7877"
       x2="15.4588"
       y2="15.7877"
       gradientUnits="userSpaceOnUse">
      <stop
         offset="0.09192"
         stop-color="#6CC04A"
         id="stop57" />
      <stop
         offset="0.2864"
         stop-color="#66B848"
         id="stop59" />
      <stop
         offset="0.5968"
         stop-color="#54A044"
         id="stop61" />
      <stop
         offset="0.8624"
         stop-color="#41873F"
         id="stop63" />
    </linearGradient>
    <linearGradient
       id="paint3_linear"
       x1="9.74127"
       y1="18.1577"
       x2="15.4588"
       y2="18.1577"
       gradientUnits="userSpaceOnUse">
      <stop
         offset="0.09192"
         stop-color="#6CC04A"
         id="stop66" />
      <stop
         offset="0.2864"
         stop-color="#66B848"
         id="stop68" />
      <stop
         offset="0.5968"
         stop-color="#54A044"
         id="stop70" />
      <stop
         offset="0.8624"
         stop-color="#41873F"
         id="stop72" />
    </linearGradient>
    <linearGradient
       id="paint4_linear"
       x1="16.2917"
       y1="13.6022"
       x2="14.8433"
       y2="21.1921"
       gradientUnits="userSpaceOnUse">
      <stop
         stop-color="#41873F"
         id="stop75" />
      <stop
         offset="0.3288"
         stop-color="#418B3D"
         id="stop77" />
      <stop
         offset="0.6352"
         stop-color="#419637"
         id="stop79" />
      <stop
         offset="0.9319"
         stop-color="#3FA92D"
         id="stop81" />
      <stop
         offset="1"
         stop-color="#3FAE2A"
         id="stop83" />
    </linearGradient>
    <linearGradient
       id="paint5_linear"
       x1="0"
       y1="0"
       x2="0"
       y2="32"
       gradientUnits="userSpaceOnUse"
       gradientTransform="translate(6.5e-6)">
      <stop
         stop-color="#BBBBBB"
         stop-opacity="0.1"
         id="stop86" />
      <stop
         offset="1"
         stop-opacity="0.1"
         id="stop88" />
    </linearGradient>
    <clipPath
       id="clip0">
      <rect
         width="26"
         height="15.9453"
         fill="white"
         transform="translate(3 9)"
         id="rect91" />
    </clipPath>
  </defs>
  <path
     d="M 102,0 H 5.0000065 c -2.7614199,0 -5,2.23858 -5,5 v 22 c 0,2.7614 2.2385801,5 5,5 H 102 c 2.761,0 5,-2.2386 5,-5 V 5 c 0,-2.76142 -2.239,-5 -5,-5 z"
     fill="url(#paint5_linear)"
     id="path35"
     style="fill:url(#paint5_linear)" />
  <text
     xml:space="preserve"
     style="font-style:normal;font-weight:normal;font-size:55.0595px;line-height:0;font-family:sans-serif;fill:#ffffff;fill-opacity:1;stroke:none;stroke-width:1.37649;letter-spacing:1.20000001px"
     x="44.619637"
     y="19.4741"
     id="text106"
     transform="scale(0.94185708,1.0617322)"><tspan
       sodipodi:role="line"
       id="tspan104"
       x="44.619637"
       y="19.4741"
       style="font-style:normal;font-variant:normal;font-weight:bold;font-stretch:normal;font-size:13.7649px;font-family:'Myriad Pro';-inkscape-font-specification:'Myriad Pro Bold';fill:#ffffff;fill-opacity:1;stroke-width:1.37649;">Node.js</tspan></text>
</svg>
