<svg xmlns="http://www.w3.org/2000/svg" xmlns:svg="http://www.w3.org/2000/svg" id="svg19" width="107" height="32" fill="none" version="1.1" viewBox="0 0 107 32"><metadata id="metadata23"/><path id="path2" fill="#0f1418" d="M 102,0 H 31 v 32 h 71 c 2.761,0 5,-2.2386 5,-5 V 5 c 0,-2.76142 -2.239,-5 -5,-5 z"/><path id="path4" fill="#366E9C" d="M31 0H5C2.23858 0 0 2.23858 0 5V27C0 29.7614 2.23858 32 5 32H31V0Z"/><path id="path6" fill="#fff" d="M27.5592 13.0251C27.1467 11.3698 26.3646 10.1216 24.6986 10.1216H22.5505V12.6608C22.5505 14.6322 20.8791 16.2928 18.972 16.2928H13.2508C11.6865 16.2928 10.3902 17.6321 10.3902 19.2017V24.655C10.3902 26.2086 11.7401 27.1192 13.2508 27.5639C15.0614 28.0942 16.8024 28.1906 18.972 27.5639C20.413 27.146 21.8326 26.305 21.8326 24.655V22.4748H16.1168V21.7462H24.6986C26.3646 21.7462 26.9807 20.5838 27.5592 18.8427C28.1592 17.0482 28.1324 15.3232 27.5592 13.0251ZM19.3309 23.9265C19.9256 23.9265 20.4077 24.414 20.4077 25.014C20.4077 25.6193 19.9256 26.1068 19.3309 26.1068C18.7417 26.1068 18.2542 25.6139 18.2542 25.014C18.2595 24.4086 18.7417 23.9265 19.3309 23.9265ZM12.9883 15.575H18.7095C20.3005 15.575 21.5701 14.2625 21.5701 12.6662V7.20742C21.5701 5.65391 20.263 4.49144 18.7095 4.22895C16.7917 3.91289 14.7079 3.92896 12.9883 4.23431C10.5669 4.66287 10.1277 5.55748 10.1277 7.21278V9.39306H15.8543V10.1216H7.97953C6.31351 10.1216 4.85642 11.1234 4.40108 13.0251C3.8761 15.2054 3.85467 16.566 4.40108 18.8427C4.80821 20.5355 5.77782 21.7462 7.44383 21.7462H9.40984V19.132C9.40984 17.241 11.0437 15.575 12.9883 15.575ZM12.6294 7.93597C12.0347 7.93597 11.5526 7.44849 11.5526 6.84851C11.558 6.24317 12.0347 5.75569 12.6294 5.75569C13.2186 5.75569 13.7061 6.24853 13.7061 6.84851C13.7061 7.44849 13.224 7.93597 12.6294 7.93597Z"/><defs id="defs17"><linearGradient id="paint0_linear" x1="0" x2="0" y1="0" y2="32" gradientTransform="translate(0,40)" gradientUnits="userSpaceOnUse"><stop id="stop12" stop-color="#BBB" stop-opacity=".1"/><stop id="stop14" offset="1" stop-opacity=".1"/></linearGradient></defs><text style="font-style:normal;font-weight:400;font-size:40px;line-height:1.25;font-family:sans-serif;fill:#000;fill-opacity:1;stroke:none" id="text27" x="36.853" y="22.614" xml:space="preserve"><tspan id="tspan25" x="36.853" y="22.614" style="font-style:normal;font-variant:normal;font-weight:400;font-stretch:normal;font-size:20px;font-family:'Myriad Pro';-inkscape-font-specification:'Myriad Pro';letter-spacing:1px;fill:#ececec">Python</tspan></text></svg>