<?xml version="1.0" encoding="UTF-8" standalone="no"?>
<svg
   xmlns:dc="http://purl.org/dc/elements/1.1/"
   xmlns:cc="http://creativecommons.org/ns#"
   xmlns:rdf="http://www.w3.org/1999/02/22-rdf-syntax-ns#"
   xmlns:svg="http://www.w3.org/2000/svg"
   xmlns="http://www.w3.org/2000/svg"
   xmlns:sodipodi="http://sodipodi.sourceforge.net/DTD/sodipodi-0.dtd"
   xmlns:inkscape="http://www.inkscape.org/namespaces/inkscape"
   width="95"
   height="32"
   viewBox="0 0 95 32"
   fill="none"
   version="1.1"
   id="svg19"
   sodipodi:docname="unity.svg"
   inkscape:version="1.0.2 (e86c870879, 2021-01-15, custom)">
  <metadata
     id="metadata23">
    <rdf:RDF>
      <cc:Work
         rdf:about="">
        <dc:format>image/svg+xml</dc:format>
        <dc:type
           rdf:resource="http://purl.org/dc/dcmitype/StillImage" />
      </cc:Work>
    </rdf:RDF>
  </metadata>
  <sodipodi:namedview
     pagecolor="#ffffff"
     bordercolor="#666666"
     borderopacity="1"
     objecttolerance="10"
     gridtolerance="10"
     guidetolerance="10"
     inkscape:pageopacity="0"
     inkscape:pageshadow="2"
     inkscape:window-width="1366"
     inkscape:window-height="705"
     id="namedview21"
     showgrid="false"
     inkscape:zoom="5.3789474"
     inkscape:cx="69.410631"
     inkscape:cy="0.72579282"
     inkscape:window-x="-8"
     inkscape:window-y="-8"
     inkscape:window-maximized="1"
     inkscape:current-layer="svg19" />
  <path
     d="M 90,0 H 31 v 32 h 59 c 2.7614,0 5,-2.2386 5,-5 V 5 C 95,2.23858 92.7614,0 90,0 Z"
     fill="#0f1418"
     id="path2" />
  <path
     d="M31 0H5C2.23858 0 0 2.23858 0 5V27C0 29.7614 2.23858 32 5 32H31V0Z"
     fill="#19E3B1"
     id="path4" />
  <path
     d="M27.542 13.254L24.9159 3.72021L15.112 6.27475L13.6597 8.76463L10.7152 8.74324L3.54004 15.721L10.7162 22.7002L13.6592 22.6788L15.1135 25.1657L24.9159 27.7202L27.542 18.1895L26.0499 15.721L27.542 13.254ZM13.897 9.16551L21.3964 7.29089L17.0916 14.5437H8.4805L13.897 9.16551ZM13.897 22.2779L8.4805 16.9002H17.0916L21.3964 24.1525L13.897 22.2779ZM23.4964 22.9742L19.1891 15.721L23.4954 8.46719L25.5749 15.721L23.4964 22.9742Z"
     fill="white"
     id="path6" />
  <defs
     id="defs17">
    <linearGradient
       id="paint0_linear"
       x1="0"
       y1="0"
       x2="0"
       y2="32"
       gradientUnits="userSpaceOnUse">
      <stop
         stop-color="#BBBBBB"
         stop-opacity="0.1"
         id="stop12" />
      <stop
         offset="1"
         stop-opacity="0.1"
         id="stop14" />
    </linearGradient>
  </defs>
  <text
     xml:space="preserve"
     style="font-style:normal;font-weight:normal;font-size:40px;line-height:1.25;font-family:sans-serif;letter-spacing:1px;fill:#000000;fill-opacity:1;stroke:none"
     x="38.669277"
     y="21.844421"
     id="text27"><tspan
       sodipodi:role="line"
       id="tspan25"
       x="38.669277"
       y="21.844421"
       style="font-style:normal;font-variant:normal;font-weight:normal;font-stretch:normal;font-size:20px;font-family:'Myriad Pro';-inkscape-font-specification:'Myriad Pro';letter-spacing:1px;fill:#ececec">Unity</tspan></text>
</svg>
