<svg xmlns="http://www.w3.org/2000/svg" xmlns:svg="http://www.w3.org/2000/svg" id="svg19" width="95" height="32" fill="none" version="1.1" viewBox="0 0 95 32"><metadata id="metadata23"/><path id="path2" fill="#0f1418" d="M 90,0 H 31 v 32 h 59 c 2.7614,0 5,-2.2386 5,-5 V 5 C 95,2.23858 92.7614,0 90,0 Z"/><path id="path4" fill="#19E3B1" d="M31 0H5C2.23858 0 0 2.23858 0 5V27C0 29.7614 2.23858 32 5 32H31V0Z"/><path id="path6" fill="#fff" d="M27.542 13.254L24.9159 3.72021L15.112 6.27475L13.6597 8.76463L10.7152 8.74324L3.54004 15.721L10.7162 22.7002L13.6592 22.6788L15.1135 25.1657L24.9159 27.7202L27.542 18.1895L26.0499 15.721L27.542 13.254ZM13.897 9.16551L21.3964 7.29089L17.0916 14.5437H8.4805L13.897 9.16551ZM13.897 22.2779L8.4805 16.9002H17.0916L21.3964 24.1525L13.897 22.2779ZM23.4964 22.9742L19.1891 15.721L23.4954 8.46719L25.5749 15.721L23.4964 22.9742Z"/><defs id="defs17"><linearGradient id="paint0_linear" x1="0" x2="0" y1="0" y2="32" gradientUnits="userSpaceOnUse"><stop id="stop12" stop-color="#BBB" stop-opacity=".1"/><stop id="stop14" offset="1" stop-opacity=".1"/></linearGradient></defs><text style="font-style:normal;font-weight:400;font-size:40px;line-height:1.25;font-family:sans-serif;letter-spacing:1px;fill:#000;fill-opacity:1;stroke:none" id="text27" x="38.669" y="21.844" xml:space="preserve"><tspan id="tspan25" x="38.669" y="21.844" style="font-style:normal;font-variant:normal;font-weight:400;font-stretch:normal;font-size:20px;font-family:'Myriad Pro';-inkscape-font-specification:'Myriad Pro';letter-spacing:1px;fill:#ececec">Unity</tspan></text></svg>